<svg width="64" height="64" xmlns="http://www.w3.org/2000/svg">
 <title/>

 <g>
  <title>Layer 1</title>
  <g stroke="null" data-name="Layer 3" id="Layer_3">
   <path stroke="null" d="m56.72606,28.97333l-0.17512,0a25.53771,19.88091 0 0 0 1.4593,-3.66945l0,0c4.62597,-20.84655 -8.49311,-18.59717 -8.49311,-18.59717l0,0a19.90482,15.49575 0 0 0 -15.86257,-5.44169c-10.03997,0.40898 -17.51157,2.40843 -23.17365,1.01109a13.39635,10.42896 0 0 0 3.85255,2.7038s-7.20893,2.40843 -13.64443,-0.20449c0,0 2.58296,4.54421 6.31876,6.11196c0,0 -4.50923,0.10224 -6.96085,-1.13605c0,0 2.83104,5.31672 7.71968,7.0208a5.95393,4.63509 0 0 1 -4.75731,0a11.55764,8.99753 0 0 0 4.64057,4.11251a3.64824,2.84013 0 0 1 -2.83104,0a24.91021,19.39241 0 0 1 5.37022,6.95264l0,0c0.16052,0.38626 0.36482,0.74979 0.55453,1.13605l-0.17512,0a2.46621,1.91993 0 0 0 -2.46621,1.91993l0,6.60046a6.61062,5.14632 0 0 0 5.64748,5.05543a15.74582,12.258 0 0 0 2.39325,2.99918c2.2911,2.74925 6.11446,4.89638 12.43322,5.47577l0,1.99945a1.6636,1.2951 0 0 1 -1.54686,1.28374l-10.21508,0.53394a6.2312,4.85094 0 0 0 -5.83719,4.81686l0,4.54421l45.23823,0l0,-4.54421a6.2312,4.85094 0 0 0 -5.83719,-4.81686l-10.21508,-0.53394a1.6636,1.2951 0 0 1 -1.54686,-1.28374l0,-1.99945c6.31876,-0.57939 10.21508,-2.72652 12.43322,-5.46441a16.05227,12.49657 0 0 0 2.34947,-3.0219a6.61062,5.14632 0 0 0 5.79341,-5.04407l0,-6.5891a2.46621,1.91993 0 0 0 -2.46621,-1.93129zm-18.47471,19.74458l-0.94854,0a3.50231,2.72652 0 0 1 -0.68587,0a6.56684,5.11223 0 0 1 -2.9186,-2.02217a6.56684,5.11223 0 0 1 -2.9186,2.02217a3.50231,2.72652 0 0 1 -0.68587,0l-0.94854,0c-2.4954,-0.73843 -1.92627,-3.40816 -1.6636,-4.40788a8.04073,6.25965 0 0 0 -2.84563,3.61265c-5.01998,-1.55639 -11.13444,-6.11196 -9.33951,-19.75594l2.15976,-5.58938a106.7914,83.13629 0 0 0 16.1982,0.95428a106.7914,83.13629 0 0 0 16.28576,-0.95428l2.15976,5.58938c1.79494,13.63262 -4.37789,18.17683 -9.33951,19.75594a8.04073,6.25965 0 0 0 -2.9186,-3.61265c0.33564,0.99973 0.90476,3.66945 -1.59063,4.40788zm-28.6752,-11.22419l0,-6.5891a1.00692,0.78388 0 0 1 1.00692,-0.78388l0.72965,0l1.59063,3.40816a33.91408,26.40185 0 0 0 0.87558,7.8842a5.12213,3.98754 0 0 1 -4.20278,-3.91938zm30.64525,17.96098l2.0868,0.11361c-0.43779,0.93156 -2.23273,3.69217 -8.63904,3.77169s-8.23044,-2.80605 -8.63904,-3.77169l2.0868,-0.11361a3.1229,2.43115 0 0 0 2.9186,-2.41979l0,-1.90857c0.71506,0 1.4593,0 2.26191,0c0.46698,0 0.91936,0 1.38633,0s0.91936,0 1.4593,0c0.78802,0 1.54686,0 2.26191,0l0,1.89721a3.1229,2.43115 0 0 0 2.80185,2.41979l0.01459,0.01136zm17.51157,-17.96098a5.12213,3.98754 0 0 1 -4.20278,3.8853a33.91408,26.40185 0 0 0 0.87558,-7.8842l1.59063,-3.40816l0.72965,0a1.00692,0.78388 0 0 1 1.00692,0.78388l0,6.62318z" id="svg_1"/>
   <path stroke="null" d="m24.89878,32.94951a1.4593,1.13605 0 0 0 -1.4593,1.13605l0,3.40816a1.4593,1.13605 0 0 0 2.9186,0l0,-3.40816a1.4593,1.13605 0 0 0 -1.4593,-1.13605z" id="svg_2"/>
   <path stroke="null" d="m42.41035,38.62977a1.4593,1.13605 0 0 0 1.4593,-1.13605l0,-3.40816a1.4593,1.13605 0 0 0 -2.9186,0l0,3.40816a1.4593,1.13605 0 0 0 1.4593,1.13605z" id="svg_3"/>
  </g>
 </g>
</svg>